<?xml version="1.0" encoding="utf-8"?>
<!-- Generator: Adobe Illustrator 16.0.0, SVG Export Plug-In . SVG Version: 6.00 Build 0)  -->
<!DOCTYPE svg PUBLIC "-//W3C//DTD SVG 1.1//EN" "http://www.w3.org/Graphics/SVG/1.1/DTD/svg11.dtd">
<svg version="1.1" id="Layer_1" xmlns="http://www.w3.org/2000/svg" xmlns:xlink="http://www.w3.org/1999/xlink" x="0px" y="0px"
	 width="15px" height="15px" viewBox="0 0 15 15" enable-background="new 0 0 15 15" xml:space="preserve">
<g>
	<g>
		<polygon fill-rule="evenodd" clip-rule="evenodd" points="14,7 14,6 13,6 13,7 12,7 12,8 11,8 11,9 10,9 10,10 9,10 9,0 6,0 6,10 
			5,10 5,9 4,9 4,8 3,8 3,7 2,7 2,6 1,6 1,7 0,7 0,8 1,8 1,9 2,9 2,10 3,10 3,11 4,11 4,12 5,12 5,13 6,13 6,14 7,14 7,15 8,15 
			8,14 9,14 9,13 10,13 10,12 11,12 11,11 12,11 12,10 13,10 13,9 14,9 14,8 15,8 15,7 		"/>
	</g>
</g>
</svg>
